<svg xmlns="http://www.w3.org/2000/svg" xmlns:xlink="http://www.w3.org/1999/xlink" viewBox="0 0 512 512" width="512" height="512" style="width: 100%; height: 100%; transform: translate3d(0,0,0); content-visibility: visible;" preserveAspectRatio="xMidYMid meet"><defs><clipPath id="__lottie_element_2"><rect width="512" height="512" x="0" y="0"></rect></clipPath><clipPath id="__lottie_element_4"><path d="M0,0 L100,0 L100,100 L0,100z"></path></clipPath><linearGradient id="__lottie_element_10" spreadMethod="pad" gradientUnits="userSpaceOnUse" x1="14.25" y1="58.95000076293945" x2="61.119998931884766" y2="15.75"><stop offset="0%" stop-color="rgb(252,194,13)" stop-opacity="1"></stop><stop offset="100%" stop-color="rgb(235,140,5)" stop-opacity="1"></stop></linearGradient></defs><g clip-path="url(#__lottie_element_2)"><g clip-path="url(#__lottie_element_4)" style="display: block;" transform="matrix(5.119999885559082,0,0,5.119999885559082,0,0)" opacity="1"><g style="display: block;" transform="matrix(1.333299994468689,0,0,1.333299994468689,0,0)" opacity="1"><g opacity="1" transform="matrix(1,0,0,1,0,0)"><g opacity="1" transform="matrix(1,0,0,1,0,0)"><path fill="url(#__lottie_element_10)" fill-opacity="1" d=" M47.31999969482422,5.619999885559082 C47.31999969482422,5.619999885559082 27.68000030517578,5.619999885559082 27.68000030517578,5.619999885559082 C15.5,5.619999885559082 5.619999885559082,15.5 5.619999885559082,27.68000030517578 C5.619999885559082,27.68000030517578 5.619999885559082,47.31999969482422 5.619999885559082,47.31999969482422 C5.619999885559082,59.5 15.5,69.37999725341797 27.68000030517578,69.37999725341797 C27.68000030517578,69.37999725341797 47.31999969482422,69.37999725341797 47.31999969482422,69.37999725341797 C59.5,69.37999725341797 69.37999725341797,59.5 69.37999725341797,47.31999969482422 C69.37999725341797,47.31999969482422 69.37999725341797,27.68000030517578 69.37999725341797,27.68000030517578 C69.37999725341797,15.5 59.5,5.619999885559082 47.31999969482422,5.619999885559082 C47.31999969482422,5.619999885559082 47.31999969482422,5.619999885559082 47.31999969482422,5.619999885559082z"></path></g><g opacity="1" transform="matrix(1,0,0,1,0,0)"><path fill="rgb(255,255,255)" fill-opacity="1" d=" M48.349998474121094,56.61000061035156 C49.2599983215332,56.5 50.04999923706055,55.93000030517578 50.439998626708984,55.099998474121094 C50.650001525878906,54.66999816894531 50.72999954223633,54.18000030517578 50.65999984741211,53.70000076293945 C50.65999984741211,53.70000076293945 49.279998779296875,44.209999084472656 49.279998779296875,44.209999084472656 C49.16999816894531,43.470001220703125 49.41999816894531,42.709999084472656 49.959999084472656,42.189998626708984 C49.959999084472656,42.189998626708984 57.47999954223633,34.86000061035156 57.47999954223633,34.86000061035156 C57.869998931884766,34.47999954223633 58.119998931884766,33.97999954223633 58.189998626708984,33.439998626708984 C58.349998474121094,32.130001068115234 57.400001525878906,30.93000030517578 56.08000183105469,30.770000457763672 C56.08000183105469,30.770000457763672 46.33000183105469,29.6200008392334 46.33000183105469,29.6200008392334 C45.47999954223633,29.520000457763672 44.7400016784668,29 44.36000061035156,28.229999542236328 C44.36000061035156,28.229999542236328 39.709999084472656,18.889999389648438 39.709999084472656,18.889999389648438 C39.4900016784668,18.450000762939453 39.130001068115234,18.09000015258789 38.689998626708984,17.8700008392334 C37.56999969482422,17.309999465942383 36.18000030517578,17.75 35.619998931884766,18.8700008392334 C35.619998931884766,18.8700008392334 30.700000762939453,28.559999465942383 30.700000762939453,28.559999465942383 C30.40999984741211,29.1200008392334 29.860000610351562,29.510000228881836 29.229999542236328,29.579999923706055 C29.229999542236328,29.579999923706055 19.450000762939453,30.829999923706055 19.450000762939453,30.829999923706055 C18.809999465942383,30.90999984741211 18.209999084472656,31.229999542236328 17.799999237060547,31.729999542236328 C16.93000030517578,32.79999923706055 17.110000610351562,34.400001525878906 18.170000076293945,35.279998779296875 C18.170000076293945,35.279998779296875 21.989999771118164,38.36000061035156 21.989999771118164,38.36000061035156 C23.360000610351562,39.470001220703125 25.139999389648438,39.959999084472656 26.889999389648438,39.709999084472656 C26.889999389648438,39.709999084472656 38.34000015258789,38.09000015258789 38.34000015258789,38.09000015258789 C38.54999923706055,38.060001373291016 38.7599983215332,38.16999816894531 38.86000061035156,38.36000061035156 C38.9900016784668,38.61000061035156 38.88999938964844,38.90999984741211 38.63999938964844,39.029998779296875 C38.63999938964844,39.029998779296875 29.270000457763672,43.7599983215332 29.270000457763672,43.7599983215332 C27.219999313354492,44.79999923706055 25.790000915527344,46.7599983215332 25.450000762939453,49.040000915527344 C25.450000762939453,49.040000915527344 24.780000686645508,53.689998626708984 24.780000686645508,53.689998626708984 C24.709999084472656,54.18000030517578 24.790000915527344,54.66999816894531 25.020000457763672,55.119998931884766 C25.6299991607666,56.29999923706055 27.09000015258789,56.7599983215332 28.270000457763672,56.15999984741211 C28.270000457763672,56.15999984741211 36.70000076293945,51.88999938964844 36.70000076293945,51.88999938964844 C37.29999923706055,51.59000015258789 38.0099983215332,51.599998474121094 38.599998474121094,51.91999816894531 C38.599998474121094,51.91999816894531 46.7400016784668,56.29999923706055 46.7400016784668,56.29999923706055 C47.22999954223633,56.560001373291016 47.790000915527344,56.68000030517578 48.34000015258789,56.61000061035156 C48.34000015258789,56.61000061035156 48.349998474121094,56.61000061035156 48.349998474121094,56.61000061035156z"></path></g></g></g></g></g></svg>